<svg id="Capa_1" data-name="Capa 1" xmlns="http://www.w3.org/2000/svg" viewBox="0 0 841.89 595.28"><defs><style>.cls-1{fill:#66276a;}.cls-2{fill:#f1b634;}</style></defs><title>WEB</title><path class="cls-1" d="M217.67,458.82c-24.85,7.53-41.3-4.44-41.25-27.76.06-36.22,0-115.58,0-120.82H120.34c-1.64-14.89,6.44-30.63,19.69-30.63H261.36c1.22,15-10.78,30.63-19,30.63h-36c0,25.86,0,46.05,0,70.92C206.34,418.65,207.3,447.55,217.67,458.82Z"/><path class="cls-1" d="M647.34,334.26c32.15-.21,57.66,27.4,57.76,62.52.1,36.49-23.79,63.58-56.22,63.73-30.86.14-56.17-28.15-56.31-62.91C592.43,360.78,615.18,334.47,647.34,334.26Zm-26.43,63.12a197.77,197.77,0,0,0,6.4,23c3.58,10.53,11,17.08,22.14,16.67,10.72-.39,17.27-7.48,20.74-17.34,2.75-7.82,5.41-22.48,5.41-22.48s-3-16.29-5.87-23.81c-3.91-10.08-11-16.21-21.58-16s-17.8,6.4-21,16.67A213,213,0,0,0,620.91,397.38Z"/><path class="cls-1" d="M503.4,410.36c-.22,20.3,13.09,27.28,33.77,27.05,11.71-.13,27.19-3.57,38.12-13.18-.61,9.61-8.57,39.92-49.68,37-10.44-.73-21.29-2.71-29.81-8.28-19.86-14.52-29.52-43.71-23.48-71,9.08-40.93,49.58-60.37,82.92-39.66,13.44,8.35,21.63,20.3,19.88,37.6-1.66,16.47-12.86,24.95-26.33,28.36-10,2.54-20.67,3.17-31.09,3.22C512.27,411.58,508.22,410.81,503.4,410.36Zm-.2-21.85c11.35,0,22.33,1.56,32.54-.73,6.52-1.47,11.31-8.89,10.56-15.57-.94-8.38-6-11.91-11.72-13.19C518.24,355.35,505.05,366.11,503.2,388.51Z"/><path class="cls-1" d="M454.19,459.49c-24.11,6.38-32.31-5.55-32.75-27.43-.2-10.08.21-25.44.14-44.56-.7-17.88-10.61-27.86-23.54-28.26-13.53-.43-22.37,9.29-23.08,27.88-.79,20.69-.85,67.34,2.11,72.14-23.7,7-32.38-4.5-32.78-24.28-.31-15.84,0-33.7,0-49.89,0-41.79,17.33-51,52.68-51,17.19,0,52.9-1.05,54.14,39.65C452,401.35,449.15,436.6,454.19,459.49Z"/><path class="cls-1" d="M309,334.11c-.28,14.07,0,61.48-.14,85.9-.1,17.46,1.37,16.94,16.06,16.56,1.08,12.8-3,20.54-12.43,23.46-12.15,3.76-26.63-3.47-31.55-16.13-1.44-3.69-2.17-10.23-2.19-14.18-.16-24.46,0-46,0-71C279.62,340.41,290.61,332.32,309,334.11Z"/><path class="cls-1" d="M309.38,294.82c-.26,9.4-7.43,16.22-16.62,15.8-8.48-.4-14.24-7.06-13.73-15.86a15.89,15.89,0,0,1,16.17-15.19C304,279.75,309.63,285.79,309.38,294.82Z"/><polygon class="cls-1" points="412.82 94.26 377.03 136.31 412.82 280.06 448.31 135.69 412.82 94.26"/><path class="cls-2" d="M412.82,280.06,367.67,95.21s-24.74,33.81-28.9,84.24C334.76,227.92,338.37,273.39,412.82,280.06Z"/><path class="cls-2" d="M412.41,280.06,457.56,95.21s24.73,33.81,28.9,84.24C490.46,227.92,486.85,273.39,412.41,280.06Z"/></svg>